<mxfile host="app.diagrams.net" modified="2024-05-19T14:26:13.543Z" agent="Mozilla/5.0 (Windows NT 10.0; Win64; x64) AppleWebKit/537.36 (KHTML, like Gecko) Chrome/108.0.0.0 Safari/537.36" version="24.4.4" etag="asIFe4uxBoymCc2Xm-Fo" type="github">
  <diagram name="第 1 页" id="-eLcI3T6-JtElndBNQ_D">
    <mxGraphModel>
      <root>
        <mxCell id="0" />
        <mxCell id="1" parent="0" />
      </root>
    </mxGraphModel>
  </diagram>
</mxfile>
